<svg xmlns="http://www.w3.org/2000/svg" viewBox="0 0 1200 667" width="1200" height="667" font-family="Georgia, serif">
<rect width="1200" height="667" fill="#fafaf7"/>

<text x="600.0" y="32" text-anchor="middle" font-size="22" font-weight="bold" fill="#1e3a5f">
  QQQ Spot vs Strategy Premium — Last 30 Trading Days
</text>
<text x="600.0" y="52" text-anchor="middle" font-size="13" fill="#666">
  May 26 – Jun 26, 2026 · Strategy: Long Call Condor 755/770/830/840, Dec 18 expiry · anchored at entry IV 20%
</text>
<line x1="100" y1="567.0" x2="1110" y2="567.0" stroke="#e0e0e0" stroke-width="1"/>
<text x="90" y="571.0" text-anchor="end" font-size="11" fill="#3b6ea8">$688</text>
<text x="1120" y="571.0" font-size="11" fill="#c33">$2.91</text>
<line x1="100" y1="465.6" x2="1110" y2="465.6" stroke="#e0e0e0" stroke-width="1"/>
<text x="90" y="469.6" text-anchor="end" font-size="11" fill="#3b6ea8">$701</text>
<text x="1120" y="469.6" font-size="11" fill="#c33">$3.27</text>
<line x1="100" y1="364.2" x2="1110" y2="364.2" stroke="#e0e0e0" stroke-width="1"/>
<text x="90" y="368.2" text-anchor="end" font-size="11" fill="#3b6ea8">$714</text>
<text x="1120" y="368.2" font-size="11" fill="#c33">$3.62</text>
<line x1="100" y1="262.8" x2="1110" y2="262.8" stroke="#e0e0e0" stroke-width="1"/>
<text x="90" y="266.8" text-anchor="end" font-size="11" fill="#3b6ea8">$726</text>
<text x="1120" y="266.8" font-size="11" fill="#c33">$3.98</text>
<line x1="100" y1="161.4" x2="1110" y2="161.4" stroke="#e0e0e0" stroke-width="1"/>
<text x="90" y="165.4" text-anchor="end" font-size="11" fill="#3b6ea8">$739</text>
<text x="1120" y="165.4" font-size="11" fill="#c33">$4.34</text>
<line x1="100" y1="60.0" x2="1110" y2="60.0" stroke="#e0e0e0" stroke-width="1"/>
<text x="90" y="64.0" text-anchor="end" font-size="11" fill="#3b6ea8">$751</text>
<text x="1120" y="64.0" font-size="11" fill="#c33">$4.69</text>
<line x1="100.0" y1="567" x2="100.0" y2="572" stroke="#666" stroke-width="1"/>
<text x="100.0" y="587" text-anchor="middle" font-size="11" fill="#666">May 26</text>
<line x1="302.0" y1="567" x2="302.0" y2="572" stroke="#666" stroke-width="1"/>
<text x="302.0" y="587" text-anchor="middle" font-size="11" fill="#666">Jun 01</text>
<line x1="504.0" y1="567" x2="504.0" y2="572" stroke="#666" stroke-width="1"/>
<text x="504.0" y="587" text-anchor="middle" font-size="11" fill="#666">Jun 07</text>
<line x1="706.0" y1="567" x2="706.0" y2="572" stroke="#666" stroke-width="1"/>
<text x="706.0" y="587" text-anchor="middle" font-size="11" fill="#666">Jun 13</text>
<line x1="908.0" y1="567" x2="908.0" y2="572" stroke="#666" stroke-width="1"/>
<text x="908.0" y="587" text-anchor="middle" font-size="11" fill="#666">Jun 19</text>
<line x1="1110.0" y1="567" x2="1110.0" y2="572" stroke="#666" stroke-width="1"/>
<text x="1110.0" y="587" text-anchor="middle" font-size="11" fill="#666">Jun 26</text>
<text x="100" y="637" font-size="11" font-weight="bold" fill="#333">Date</text>
<text x="40" y="25" font-size="11" font-weight="bold" fill="#3b6ea8">QQQ Spot ($)</text>
<text x="1120" y="25" font-size="11" font-weight="bold" fill="#c33">Strategy Premium ($/sh)</text>
<path d="M100.0,230.1 L132.6,236.8 L165.2,187.3 L197.7,165.5 L295.5,129.8 L328.1,102.3 L360.6,118.0 L393.2,146.9 L425.8,433.2 L523.5,344.5 L556.1,410.9 L588.7,524.7 L621.3,336.1 L653.9,302.1 L751.6,119.6 L784.2,233.5 L816.8,292.7 L849.4,146.9 L979.7,168.4 L1012.3,364.0 L1044.8,388.4 L1077.4,342.0 L1110.0,421.4" fill="none" stroke="#3b6ea8" stroke-width="3"/>
<circle cx="100.0" cy="230.1" r="3.5" fill="#3b6ea8"/>
<circle cx="132.6" cy="236.8" r="3.5" fill="#3b6ea8"/>
<circle cx="165.2" cy="187.3" r="3.5" fill="#3b6ea8"/>
<circle cx="197.7" cy="165.5" r="3.5" fill="#3b6ea8"/>
<circle cx="295.5" cy="129.8" r="3.5" fill="#3b6ea8"/>
<circle cx="328.1" cy="102.3" r="3.5" fill="#3b6ea8"/>
<circle cx="360.6" cy="118.0" r="3.5" fill="#3b6ea8"/>
<circle cx="393.2" cy="146.9" r="3.5" fill="#3b6ea8"/>
<circle cx="425.8" cy="433.2" r="3.5" fill="#3b6ea8"/>
<circle cx="523.5" cy="344.5" r="3.5" fill="#3b6ea8"/>
<circle cx="556.1" cy="410.9" r="3.5" fill="#3b6ea8"/>
<circle cx="588.7" cy="524.7" r="3.5" fill="#3b6ea8"/>
<circle cx="621.3" cy="336.1" r="3.5" fill="#3b6ea8"/>
<circle cx="653.9" cy="302.1" r="3.5" fill="#3b6ea8"/>
<circle cx="751.6" cy="119.6" r="3.5" fill="#3b6ea8"/>
<circle cx="784.2" cy="233.5" r="3.5" fill="#3b6ea8"/>
<circle cx="816.8" cy="292.7" r="3.5" fill="#3b6ea8"/>
<circle cx="849.4" cy="146.9" r="3.5" fill="#3b6ea8"/>
<circle cx="979.7" cy="168.4" r="3.5" fill="#3b6ea8"/>
<circle cx="1012.3" cy="364.0" r="3.5" fill="#3b6ea8"/>
<circle cx="1044.8" cy="388.4" r="3.5" fill="#3b6ea8"/>
<circle cx="1077.4" cy="342.0" r="3.5" fill="#3b6ea8"/>
<circle cx="1110.0" cy="421.4" r="3.5" fill="#3b6ea8"/>
<path d="M100.0,223.4 L132.6,229.1 L165.2,182.6 L197.7,162.0 L295.5,127.5 L328.1,102.2 L360.6,115.0 L393.2,140.1 L425.8,424.6 L523.5,332.0 L556.1,402.0 L588.7,524.8 L621.3,322.9 L653.9,287.3 L751.6,104.1 L784.2,214.9 L816.8,276.1 L849.4,127.0 L979.7,144.6 L1012.3,353.1 L1044.8,380.7 L1077.4,328.7 L1110.0,418.8" fill="none" stroke="#c33" stroke-width="2.5" stroke-dasharray="4 2"/>
<circle cx="100.0" cy="223.4" r="3" fill="#c33"/>
<circle cx="132.6" cy="229.1" r="3" fill="#c33"/>
<circle cx="165.2" cy="182.6" r="3" fill="#c33"/>
<circle cx="197.7" cy="162.0" r="3" fill="#c33"/>
<circle cx="295.5" cy="127.5" r="3" fill="#c33"/>
<circle cx="328.1" cy="102.2" r="3" fill="#c33"/>
<circle cx="360.6" cy="115.0" r="3" fill="#c33"/>
<circle cx="393.2" cy="140.1" r="3" fill="#c33"/>
<circle cx="425.8" cy="424.6" r="3" fill="#c33"/>
<circle cx="523.5" cy="332.0" r="3" fill="#c33"/>
<circle cx="556.1" cy="402.0" r="3" fill="#c33"/>
<circle cx="588.7" cy="524.8" r="3" fill="#c33"/>
<circle cx="621.3" cy="322.9" r="3" fill="#c33"/>
<circle cx="653.9" cy="287.3" r="3" fill="#c33"/>
<circle cx="751.6" cy="104.1" r="3" fill="#c33"/>
<circle cx="784.2" cy="214.9" r="3" fill="#c33"/>
<circle cx="816.8" cy="276.1" r="3" fill="#c33"/>
<circle cx="849.4" cy="127.0" r="3" fill="#c33"/>
<circle cx="979.7" cy="144.6" r="3" fill="#c33"/>
<circle cx="1012.3" cy="353.1" r="3" fill="#c33"/>
<circle cx="1044.8" cy="380.7" r="3" fill="#c33"/>
<circle cx="1077.4" cy="328.7" r="3" fill="#c33"/>
<circle cx="1110.0" cy="418.8" r="3" fill="#c33"/>
<line x1="1110.0" y1="60" x2="1110.0" y2="567" stroke="#3a8a3a" stroke-width="2" stroke-dasharray="3 3"/>
<text x="1116.0" y="76" font-size="11" font-weight="bold" fill="#3a8a3a">ENTRY Jun 26</text>
<rect x="870" y="72" width="220" height="78" fill="white" stroke="#999" stroke-width="1" rx="4"/>
<line x1="880" y1="90" x2="910" y2="90" stroke="#3b6ea8" stroke-width="3"/>
<circle cx="895" cy="90" r="3.5" fill="#3b6ea8"/>
<text x="918" y="94" font-size="11" fill="#333">QQQ Spot (left axis)</text>
<line x1="880" y1="112" x2="910" y2="112" stroke="#c33" stroke-width="2.5" stroke-dasharray="4 2"/>
<text x="918" y="116" font-size="11" fill="#333">Strategy premium (right axis)</text>
<text x="918" y="136" font-size="10" fill="#666" font-style="italic">Recomputed daily at that day's spot, anchored IV 20%</text>
</svg>
