<svg xmlns="http://www.w3.org/2000/svg" viewBox="0 0 1200 667" width="1200" height="667" font-family="Georgia, serif">
<rect width="1200" height="667" fill="#fafaf7"/>

<!-- Title -->
<text x="600.0" y="32" text-anchor="middle" font-size="22" font-weight="bold" fill="#1e3a5f">
  QQQ Long Call Condor — P/L Curve at Three Time Horizons
</text>
<text x="600.0" y="52" text-anchor="middle" font-size="13" fill="#666">
  Dec 18 2026 755/770/830/840 · Net debit $4.275/sh · Spot $734 · IV 20%
</text>

<!-- Grid lines (horizontal) -->
<line x1="100" y1="587.0" x2="1120" y2="587.0" stroke="#e0e0e0" stroke-width="1"/>
<text x="90" y="591.0" text-anchor="end" font-size="11" fill="#666">$-600</text>
<line x1="100" y1="499.2" x2="1120" y2="499.2" stroke="#e0e0e0" stroke-width="1"/>
<text x="90" y="503.2" text-anchor="end" font-size="11" fill="#666">$-300</text>
<line x1="100" y1="411.3" x2="1120" y2="411.3" stroke="#e0e0e0" stroke-width="1"/>
<text x="90" y="415.3" text-anchor="end" font-size="11" fill="#666">$0</text>
<line x1="100" y1="323.5" x2="1120" y2="323.5" stroke="#e0e0e0" stroke-width="1"/>
<text x="90" y="327.5" text-anchor="end" font-size="11" fill="#666">$300</text>
<line x1="100" y1="235.7" x2="1120" y2="235.7" stroke="#e0e0e0" stroke-width="1"/>
<text x="90" y="239.7" text-anchor="end" font-size="11" fill="#666">$600</text>
<line x1="100" y1="147.8" x2="1120" y2="147.8" stroke="#e0e0e0" stroke-width="1"/>
<text x="90" y="151.8" text-anchor="end" font-size="11" fill="#666">$900</text>
<line x1="100" y1="60.0" x2="1120" y2="60.0" stroke="#e0e0e0" stroke-width="1"/>
<text x="90" y="64.0" text-anchor="end" font-size="11" fill="#666">$1,200</text>
<line x1="100.0" y1="60" x2="100.0" y2="587" stroke="#e0e0e0" stroke-width="1"/>
<text x="100.0" y="607" text-anchor="middle" font-size="11" fill="#666">$700</text>
<line x1="227.5" y1="60" x2="227.5" y2="587" stroke="#e0e0e0" stroke-width="1"/>
<text x="227.5" y="607" text-anchor="middle" font-size="11" fill="#666">$725</text>
<line x1="355.0" y1="60" x2="355.0" y2="587" stroke="#e0e0e0" stroke-width="1"/>
<text x="355.0" y="607" text-anchor="middle" font-size="11" fill="#666">$750</text>
<line x1="482.5" y1="60" x2="482.5" y2="587" stroke="#e0e0e0" stroke-width="1"/>
<text x="482.5" y="607" text-anchor="middle" font-size="11" fill="#666">$775</text>
<line x1="610.0" y1="60" x2="610.0" y2="587" stroke="#e0e0e0" stroke-width="1"/>
<text x="610.0" y="607" text-anchor="middle" font-size="11" fill="#666">$800</text>
<line x1="737.5" y1="60" x2="737.5" y2="587" stroke="#e0e0e0" stroke-width="1"/>
<text x="737.5" y="607" text-anchor="middle" font-size="11" fill="#666">$825</text>
<line x1="865.0" y1="60" x2="865.0" y2="587" stroke="#e0e0e0" stroke-width="1"/>
<text x="865.0" y="607" text-anchor="middle" font-size="11" fill="#666">$850</text>
<line x1="992.5" y1="60" x2="992.5" y2="587" stroke="#e0e0e0" stroke-width="1"/>
<text x="992.5" y="607" text-anchor="middle" font-size="11" fill="#666">$875</text>
<line x1="1120.0" y1="60" x2="1120.0" y2="587" stroke="#e0e0e0" stroke-width="1"/>
<text x="1120.0" y="607" text-anchor="middle" font-size="11" fill="#666">$900</text>
<text x="600.0" y="647" text-anchor="middle" font-size="12" font-weight="bold" fill="#333">Underlying Price (QQQ)</text>
<text x="20" y="333.5" text-anchor="middle" font-size="12" font-weight="bold" fill="#333" transform="rotate(-90 20 333.5)">P/L per Contract ($)</text>
<line x1="100" y1="411.3" x2="1120" y2="411.3" stroke="#333" stroke-width="1.5"/>
<path d="M100.0,536.5 L105.1,536.5 L110.2,536.5 L115.3,536.5 L120.4,536.5 L125.5,536.5 L130.6,536.5 L135.7,536.5 L140.8,536.5 L145.9,536.5 L151.0,536.5 L156.1,536.5 L161.2,536.5 L166.3,536.5 L171.4,536.5 L176.5,536.5 L181.6,536.5 L186.7,536.5 L191.8,536.5 L196.9,536.5 L202.0,536.5 L207.1,536.5 L212.2,536.5 L217.3,536.5 L222.4,536.5 L227.5,536.5 L232.6,536.5 L237.7,536.5 L242.8,536.5 L247.9,536.5 L253.0,536.5 L258.1,536.5 L263.2,536.5 L268.3,536.5 L273.4,536.5 L278.5,536.5 L283.6,536.5 L288.7,536.5 L293.8,536.5 L298.9,536.5 L304.0,536.5 L309.1,536.5 L314.2,536.5 L319.3,536.5 L324.4,536.5 L329.5,536.5 L334.6,536.5 L339.7,536.5 L344.8,536.5 L349.9,536.5 L355.0,536.5 L360.1,536.5 L365.2,536.5 L370.3,536.5 L375.4,536.5 L380.5,536.5 L385.6,507.2 L390.7,477.9 L395.8,448.7 L400.9,419.4 L406.0,390.1 L411.1,360.8 L416.2,331.6 L421.3,302.3 L426.4,273.0 L431.5,243.7 L436.6,214.4 L441.7,185.2 L446.8,155.9 L451.9,126.6 L457.0,97.3 L462.1,97.3 L467.2,97.3 L472.3,97.3 L477.4,97.3 L482.5,97.3 L487.6,97.3 L492.7,97.3 L497.8,97.3 L502.9,97.3 L508.0,97.3 L513.1,97.3 L518.2,97.3 L523.3,97.3 L528.4,97.3 L533.5,97.3 L538.6,97.3 L543.7,97.3 L548.8,97.3 L553.9,97.3 L559.0,97.3 L564.1,97.3 L569.2,97.3 L574.3,97.3 L579.4,97.3 L584.5,97.3 L589.6,97.3 L594.7,97.3 L599.8,97.3 L604.9,97.3 L610.0,97.3 L615.1,97.3 L620.2,97.3 L625.3,97.3 L630.4,97.3 L635.5,97.3 L640.6,97.3 L645.7,97.3 L650.8,97.3 L655.9,97.3 L661.0,97.3 L666.1,97.3 L671.2,97.3 L676.3,97.3 L681.4,97.3 L686.5,97.3 L691.6,97.3 L696.7,97.3 L701.8,97.3 L706.9,97.3 L712.0,97.3 L717.1,97.3 L722.2,97.3 L727.3,97.3 L732.4,97.3 L737.5,97.3 L742.6,97.3 L747.7,97.3 L752.8,97.3 L757.9,97.3 L763.0,97.3 L768.1,126.6 L773.2,155.9 L778.3,185.2 L783.4,214.4 L788.5,243.7 L793.6,273.0 L798.7,302.3 L803.8,331.6 L808.9,360.8 L814.0,390.1 L819.1,390.1 L824.2,390.1 L829.3,390.1 L834.4,390.1 L839.5,390.1 L844.6,390.1 L849.7,390.1 L854.8,390.1 L859.9,390.1 L865.0,390.1 L870.1,390.1 L875.2,390.1 L880.3,390.1 L885.4,390.1 L890.5,390.1 L895.6,390.1 L900.7,390.1 L905.8,390.1 L910.9,390.1 L916.0,390.1 L921.1,390.1 L926.2,390.1 L931.3,390.1 L936.4,390.1 L941.5,390.1 L946.6,390.1 L951.7,390.1 L956.8,390.1 L961.9,390.1 L967.0,390.1 L972.1,390.1 L977.2,390.1 L982.3,390.1 L987.4,390.1 L992.5,390.1 L997.6,390.1 L1002.7,390.1 L1007.8,390.1 L1012.9,390.1 L1018.0,390.1 L1023.1,390.1 L1028.2,390.1 L1033.3,390.1 L1038.4,390.1 L1043.5,390.1 L1048.6,390.1 L1053.7,390.1 L1058.8,390.1 L1063.9,390.1 L1069.0,390.1 L1074.1,390.1 L1079.2,390.1 L1084.3,390.1 L1089.4,390.1 L1094.5,390.1 L1099.6,390.1 L1104.7,390.1 L1109.8,390.1 L1114.9,390.1 L1120.0,390.1" fill="none" stroke="#d4a017" stroke-width="2.5" stroke-dasharray="6 3"/>
<path d="M100.0,454.6 L105.1,453.2 L110.2,451.9 L115.3,450.5 L120.4,449.0 L125.5,447.6 L130.6,446.2 L135.7,444.8 L140.8,443.4 L145.9,441.9 L151.0,440.5 L156.1,439.0 L161.2,437.6 L166.3,436.1 L171.4,434.7 L176.5,433.2 L181.6,431.8 L186.7,430.3 L191.8,428.8 L196.9,427.4 L202.0,425.9 L207.1,424.4 L212.2,423.0 L217.3,421.5 L222.4,420.1 L227.5,418.6 L232.6,417.1 L237.7,415.7 L242.8,414.2 L247.9,412.7 L253.0,411.3 L258.1,409.8 L263.2,408.4 L268.3,407.0 L273.4,405.5 L278.5,404.1 L283.6,402.7 L288.7,401.2 L293.8,399.8 L298.9,398.4 L304.0,397.0 L309.1,395.6 L314.2,394.2 L319.3,392.9 L324.4,391.5 L329.5,390.1 L334.6,388.8 L339.7,387.4 L344.8,386.1 L349.9,384.8 L355.0,383.5 L360.1,382.2 L365.2,380.9 L370.3,379.6 L375.4,378.3 L380.5,377.1 L385.6,375.8 L390.7,374.6 L395.8,373.4 L400.9,372.2 L406.0,371.0 L411.1,369.8 L416.2,368.6 L421.3,367.5 L426.4,366.3 L431.5,365.2 L436.6,364.1 L441.7,363.0 L446.8,361.9 L451.9,360.9 L457.0,359.8 L462.1,358.8 L467.2,357.8 L472.3,356.8 L477.4,355.8 L482.5,354.9 L487.6,353.9 L492.7,353.0 L497.8,352.1 L502.9,351.2 L508.0,350.3 L513.1,349.4 L518.2,348.6 L523.3,347.8 L528.4,347.0 L533.5,346.2 L538.6,345.4 L543.7,344.7 L548.8,343.9 L553.9,343.2 L559.0,342.5 L564.1,341.8 L569.2,341.2 L574.3,340.5 L579.4,339.9 L584.5,339.3 L589.6,338.7 L594.7,338.1 L599.8,337.6 L604.9,337.0 L610.0,336.5 L615.1,336.0 L620.2,335.5 L625.3,335.1 L630.4,334.6 L635.5,334.2 L640.6,333.8 L645.7,333.4 L650.8,333.0 L655.9,332.7 L661.0,332.3 L666.1,332.0 L671.2,331.7 L676.3,331.4 L681.4,331.1 L686.5,330.9 L691.6,330.7 L696.7,330.4 L701.8,330.2 L706.9,330.0 L712.0,329.9 L717.1,329.7 L722.2,329.6 L727.3,329.5 L732.4,329.3 L737.5,329.3 L742.6,329.2 L747.7,329.1 L752.8,329.1 L757.9,329.0 L763.0,329.0 L768.1,329.0 L773.2,329.0 L778.3,329.0 L783.4,329.1 L788.5,329.1 L793.6,329.2 L798.7,329.3 L803.8,329.3 L808.9,329.4 L814.0,329.6 L819.1,329.7 L824.2,329.8 L829.3,330.0 L834.4,330.1 L839.5,330.3 L844.6,330.5 L849.7,330.7 L854.8,330.9 L859.9,331.1 L865.0,331.3 L870.1,331.5 L875.2,331.8 L880.3,332.0 L885.4,332.3 L890.5,332.6 L895.6,332.8 L900.7,333.1 L905.8,333.4 L910.9,333.7 L916.0,334.0 L921.1,334.3 L926.2,334.7 L931.3,335.0 L936.4,335.3 L941.5,335.7 L946.6,336.0 L951.7,336.4 L956.8,336.8 L961.9,337.1 L967.0,337.5 L972.1,337.9 L977.2,338.3 L982.3,338.7 L987.4,339.1 L992.5,339.5 L997.6,339.9 L1002.7,340.3 L1007.8,340.7 L1012.9,341.1 L1018.0,341.5 L1023.1,341.9 L1028.2,342.4 L1033.3,342.8 L1038.4,343.2 L1043.5,343.7 L1048.6,344.1 L1053.7,344.5 L1058.8,345.0 L1063.9,345.4 L1069.0,345.9 L1074.1,346.3 L1079.2,346.7 L1084.3,347.2 L1089.4,347.6 L1094.5,348.1 L1099.6,348.5 L1104.7,349.0 L1109.8,349.4 L1114.9,349.9 L1120.0,350.3" fill="none" stroke="#3b6ea8" stroke-width="2.5" stroke-dasharray="2 2"/>
<path d="M100.0,442.2 L105.1,441.2 L110.2,440.3 L115.3,439.3 L120.4,438.4 L125.5,437.4 L130.6,436.5 L135.7,435.5 L140.8,434.6 L145.9,433.6 L151.0,432.7 L156.1,431.8 L161.2,430.8 L166.3,429.9 L171.4,428.9 L176.5,428.0 L181.6,427.1 L186.7,426.1 L191.8,425.2 L196.9,424.3 L202.0,423.4 L207.1,422.4 L212.2,421.5 L217.3,420.6 L222.4,419.7 L227.5,418.8 L232.6,417.9 L237.7,417.0 L242.8,416.1 L247.9,415.2 L253.0,414.3 L258.1,413.4 L263.2,412.5 L268.3,411.7 L273.4,410.8 L278.5,409.9 L283.6,409.1 L288.7,408.2 L293.8,407.4 L298.9,406.5 L304.0,405.7 L309.1,404.8 L314.2,404.0 L319.3,403.2 L324.4,402.4 L329.5,401.5 L334.6,400.7 L339.7,399.9 L344.8,399.1 L349.9,398.4 L355.0,397.6 L360.1,396.8 L365.2,396.0 L370.3,395.3 L375.4,394.5 L380.5,393.7 L385.6,393.0 L390.7,392.3 L395.8,391.5 L400.9,390.8 L406.0,390.1 L411.1,389.4 L416.2,388.7 L421.3,388.0 L426.4,387.3 L431.5,386.6 L436.6,385.9 L441.7,385.3 L446.8,384.6 L451.9,384.0 L457.0,383.3 L462.1,382.7 L467.2,382.0 L472.3,381.4 L477.4,380.8 L482.5,380.2 L487.6,379.6 L492.7,379.0 L497.8,378.4 L502.9,377.9 L508.0,377.3 L513.1,376.7 L518.2,376.2 L523.3,375.6 L528.4,375.1 L533.5,374.6 L538.6,374.1 L543.7,373.6 L548.8,373.1 L553.9,372.6 L559.0,372.1 L564.1,371.6 L569.2,371.1 L574.3,370.7 L579.4,370.2 L584.5,369.8 L589.6,369.3 L594.7,368.9 L599.8,368.5 L604.9,368.1 L610.0,367.7 L615.1,367.3 L620.2,366.9 L625.3,366.5 L630.4,366.1 L635.5,365.7 L640.6,365.4 L645.7,365.0 L650.8,364.7 L655.9,364.4 L661.0,364.0 L666.1,363.7 L671.2,363.4 L676.3,363.1 L681.4,362.8 L686.5,362.5 L691.6,362.2 L696.7,362.0 L701.8,361.7 L706.9,361.4 L712.0,361.2 L717.1,360.9 L722.2,360.7 L727.3,360.5 L732.4,360.3 L737.5,360.0 L742.6,359.8 L747.7,359.6 L752.8,359.5 L757.9,359.3 L763.0,359.1 L768.1,358.9 L773.2,358.8 L778.3,358.6 L783.4,358.4 L788.5,358.3 L793.6,358.2 L798.7,358.0 L803.8,357.9 L808.9,357.8 L814.0,357.7 L819.1,357.6 L824.2,357.5 L829.3,357.4 L834.4,357.3 L839.5,357.2 L844.6,357.1 L849.7,357.1 L854.8,357.0 L859.9,357.0 L865.0,356.9 L870.1,356.9 L875.2,356.8 L880.3,356.8 L885.4,356.8 L890.5,356.7 L895.6,356.7 L900.7,356.7 L905.8,356.7 L910.9,356.7 L916.0,356.7 L921.1,356.7 L926.2,356.7 L931.3,356.7 L936.4,356.8 L941.5,356.8 L946.6,356.8 L951.7,356.9 L956.8,356.9 L961.9,356.9 L967.0,357.0 L972.1,357.0 L977.2,357.1 L982.3,357.2 L987.4,357.2 L992.5,357.3 L997.6,357.4 L1002.7,357.5 L1007.8,357.5 L1012.9,357.6 L1018.0,357.7 L1023.1,357.8 L1028.2,357.9 L1033.3,358.0 L1038.4,358.1 L1043.5,358.2 L1048.6,358.3 L1053.7,358.4 L1058.8,358.6 L1063.9,358.7 L1069.0,358.8 L1074.1,358.9 L1079.2,359.0 L1084.3,359.2 L1089.4,359.3 L1094.5,359.4 L1099.6,359.6 L1104.7,359.7 L1109.8,359.9 L1114.9,360.0 L1120.0,360.2" fill="none" stroke="#3a8a3a" stroke-width="3"/>
<line x1="380.5" y1="60" x2="380.5" y2="587" stroke="#888" stroke-width="1" stroke-dasharray="3 3"/>
<text x="380.5" y="52" text-anchor="middle" font-size="11" fill="#444">$755C</text>
<line x1="457.0" y1="60" x2="457.0" y2="587" stroke="#888" stroke-width="1" stroke-dasharray="3 3"/>
<text x="457.0" y="52" text-anchor="middle" font-size="11" fill="#444">$770C</text>
<line x1="763.0" y1="60" x2="763.0" y2="587" stroke="#888" stroke-width="1" stroke-dasharray="3 3"/>
<text x="763.0" y="52" text-anchor="middle" font-size="11" fill="#444">$830C</text>
<line x1="814.0" y1="60" x2="814.0" y2="587" stroke="#888" stroke-width="1" stroke-dasharray="3 3"/>
<text x="814.0" y="52" text-anchor="middle" font-size="11" fill="#444">$840C</text>
<line x1="273.4" y1="60" x2="273.4" y2="587" stroke="#c33" stroke-width="2"/>
<circle cx="273.4" cy="410.8" r="5" fill="#c33"/>
<text x="283.4" y="400.8" font-size="11" font-weight="bold" fill="#c33">Spot $734</text>
<line x1="402.3" y1="403.3" x2="402.3" y2="419.3" stroke="#000" stroke-width="2"/>
<text x="402.3" y="436.3" text-anchor="middle" font-size="10" fill="#000" font-weight="bold">$759.27</text>
<line x1="817.7" y1="403.3" x2="817.7" y2="419.3" stroke="#000" stroke-width="2"/>
<text x="817.7" y="436.3" text-anchor="middle" font-size="10" fill="#000" font-weight="bold">$840.73</text>
<text x="610.0" y="89.3" font-size="11" fill="#3a8a3a" font-weight="bold">Max profit: $1072</text>
<text x="610.0" y="540.5" font-size="11" fill="#c33" font-weight="bold">Max loss: −$428</text>
<rect x="870" y="62" width="240" height="100" fill="white" stroke="#999" stroke-width="1" rx="4"/>
<text x="880" y="80" font-size="12" font-weight="bold" fill="#333">Time Horizons</text>
<line x1="880" y1="96" x2="910" y2="96" stroke="#3a8a3a" stroke-width="3"/>
<text x="918" y="100" font-size="11" fill="#333">Now (175 DTE)</text>
<line x1="880" y1="116" x2="910" y2="116" stroke="#3b6ea8" stroke-width="2.5" stroke-dasharray="2 2"/>
<text x="918" y="120" font-size="11" fill="#333">Mid-life (~96 DTE)</text>
<line x1="880" y1="136" x2="910" y2="136" stroke="#d4a017" stroke-width="2.5" stroke-dasharray="6 3"/>
<text x="918" y="140" font-size="11" fill="#333">Expiration (Dec 18 2026)</text>
</svg>
