<svg xmlns="http://www.w3.org/2000/svg" viewBox="0 0 1200 600" width="1200" height="600" font-family="Georgia, serif">
<rect width="1200" height="600" fill="#fafaf7"/>

<text x="600.0" y="32" text-anchor="middle" font-size="22" font-weight="bold" fill="#1e3a5f">
  RUT Spot vs Diagonal Strategy Premium — 30 Days to Entry
</text>
<text x="600.0" y="52" text-anchor="middle" font-size="13" fill="#666">
  Apr 13, 2026 entry · 2900/2950 diagonal · IV 30% anchored
</text>
<line x1="100" y1="520.0" x2="1100" y2="520.0" stroke="#f0e6c0" stroke-width="1"/>
<text x="1110" y="524.0" font-size="11" fill="#b08900">$1,652</text>
<line x1="100" y1="428.0" x2="1100" y2="428.0" stroke="#f0e6c0" stroke-width="1"/>
<text x="1110" y="432.0" font-size="11" fill="#b08900">$1,862</text>
<line x1="100" y1="336.0" x2="1100" y2="336.0" stroke="#f0e6c0" stroke-width="1"/>
<text x="1110" y="340.0" font-size="11" fill="#b08900">$2,073</text>
<line x1="100" y1="244.0" x2="1100" y2="244.0" stroke="#f0e6c0" stroke-width="1"/>
<text x="1110" y="248.0" font-size="11" fill="#b08900">$2,283</text>
<line x1="100" y1="152.0" x2="1100" y2="152.0" stroke="#f0e6c0" stroke-width="1"/>
<text x="1110" y="156.0" font-size="11" fill="#b08900">$2,493</text>
<line x1="100" y1="60.0" x2="1100" y2="60.0" stroke="#f0e6c0" stroke-width="1"/>
<text x="1110" y="64.0" font-size="11" fill="#b08900">$2,704</text>
<text x="90" y="524.0" text-anchor="end" font-size="11" fill="#1e3a5f">$2,366</text>
<text x="90" y="432.0" text-anchor="end" font-size="11" fill="#1e3a5f">$2,437</text>
<text x="90" y="340.0" text-anchor="end" font-size="11" fill="#1e3a5f">$2,509</text>
<text x="90" y="248.0" text-anchor="end" font-size="11" fill="#1e3a5f">$2,581</text>
<text x="90" y="156.0" text-anchor="end" font-size="11" fill="#1e3a5f">$2,652</text>
<text x="90" y="64.0" text-anchor="end" font-size="11" fill="#1e3a5f">$2,724</text>
<text x="100.0" y="540" text-anchor="middle" font-size="10" fill="#666">Mar 16</text>
<line x1="100.0" y1="520" x2="100.0" y2="524" stroke="#666" stroke-width="1"/>
<text x="310.5" y="540" text-anchor="middle" font-size="10" fill="#666">Mar 20</text>
<line x1="310.5" y1="520" x2="310.5" y2="524" stroke="#666" stroke-width="1"/>
<text x="521.1" y="540" text-anchor="middle" font-size="10" fill="#666">Mar 26</text>
<line x1="521.1" y1="520" x2="521.1" y2="524" stroke="#666" stroke-width="1"/>
<text x="731.6" y="540" text-anchor="middle" font-size="10" fill="#666">Apr 01</text>
<line x1="731.6" y1="520" x2="731.6" y2="524" stroke="#666" stroke-width="1"/>
<text x="942.1" y="540" text-anchor="middle" font-size="10" fill="#666">Apr 08</text>
<line x1="942.1" y1="520" x2="942.1" y2="524" stroke="#666" stroke-width="1"/>
<text x="1100.0" y="540" text-anchor="middle" font-size="10" fill="#666">Apr 13</text>
<line x1="1100.0" y1="520" x2="1100.0" y2="524" stroke="#666" stroke-width="1"/>
<text x="600.0" y="580" text-anchor="middle" font-size="12" font-weight="bold" fill="#333">Trading Day</text>
<text x="20" y="300.0" text-anchor="middle" font-size="12" font-weight="bold" fill="#1e3a5f" transform="rotate(-90 20 300.0)">RUT Spot</text>
<text x="1180" y="300.0" text-anchor="middle" font-size="12" font-weight="bold" fill="#b08900" transform="rotate(90 1180 300.0)">Strategy Premium ($/contract)</text>
<path d="M100.0,343.3 L152.6,321.9 L205.3,375.0 L257.9,354.3 L310.5,426.6 L363.2,355.0 L415.8,340.6 L468.4,300.8 L521.1,356.1 L573.7,412.2 L626.3,458.0 L678.9,352.2 L731.6,331.7 L784.2,309.0 L836.8,295.4 L889.5,289.8 L942.1,192.8 L994.7,172.5 L1047.4,179.8 L1100.0,128.6" fill="none" stroke="#1e3a5f" stroke-width="2.5"/>
<path d="M100.0,349.3 L152.6,326.4 L205.3,384.6 L257.9,362.6 L310.5,441.6 L363.2,365.0 L415.8,349.6 L468.4,306.2 L521.1,367.7 L573.7,429.9 L626.3,482.0 L678.9,365.7 L731.6,343.2 L784.2,318.2 L836.8,304.3 L889.5,298.4 L942.1,188.7 L994.7,165.8 L1047.4,174.2 L1100.0,116.3" fill="none" stroke="#d4a017" stroke-width="2.5" stroke-dasharray="5 3"/>
<line x1="1100.0" y1="60" x2="1100.0" y2="520" stroke="#c33" stroke-width="1.5" stroke-dasharray="3 3"/>
<text x="1092.0" y="74.0" text-anchor="end" font-size="11" font-weight="bold" fill="#c33">Entry Apr 13</text>
<rect x="810" y="432" width="280" height="60" fill="white" stroke="#999" stroke-width="1" rx="4"/>
<line x1="820" y1="450" x2="850" y2="450" stroke="#1e3a5f" stroke-width="2.5"/>
<text x="858" y="454" font-size="11" fill="#333">RUT Spot (left axis)</text>
<line x1="820" y1="470" x2="850" y2="470" stroke="#d4a017" stroke-width="2.5" stroke-dasharray="5 3"/>
<text x="858" y="474" font-size="11" fill="#333">Strategy Premium (right axis)</text>
</svg>
