<svg xmlns="http://www.w3.org/2000/svg" viewBox="0 0 1200 667" width="1200" height="667" font-family="Georgia, serif">
<rect width="1200" height="667" fill="#fafaf7"/>

<text x="600.0" y="32" text-anchor="middle" font-size="22" font-weight="bold" fill="#1e3a5f">
  RUT Diagonal Call Spread — P/L Curve at Three Time Horizons
</text>
<text x="600.0" y="52" text-anchor="middle" font-size="13" fill="#666">
  Dec 18 / Dec 31 2026 · 2900/2950 · Net debit $2,870 · Spot $2,670 · IV 30%
</text>
<line x1="100" y1="587.0" x2="1120" y2="587.0" stroke="#e0e0e0" stroke-width="1"/>
<text x="90" y="591.0" text-anchor="end" font-size="11" fill="#666">$-3,500</text>
<line x1="100" y1="499.2" x2="1120" y2="499.2" stroke="#e0e0e0" stroke-width="1"/>
<text x="90" y="503.2" text-anchor="end" font-size="11" fill="#666">$-1,750</text>
<line x1="100" y1="411.3" x2="1120" y2="411.3" stroke="#e0e0e0" stroke-width="1"/>
<text x="90" y="415.3" text-anchor="end" font-size="11" fill="#666">$0</text>
<line x1="100" y1="323.5" x2="1120" y2="323.5" stroke="#e0e0e0" stroke-width="1"/>
<text x="90" y="327.5" text-anchor="end" font-size="11" fill="#666">$1,750</text>
<line x1="100" y1="235.7" x2="1120" y2="235.7" stroke="#e0e0e0" stroke-width="1"/>
<text x="90" y="239.7" text-anchor="end" font-size="11" fill="#666">$3,500</text>
<line x1="100" y1="147.8" x2="1120" y2="147.8" stroke="#e0e0e0" stroke-width="1"/>
<text x="90" y="151.8" text-anchor="end" font-size="11" fill="#666">$5,250</text>
<line x1="100" y1="60.0" x2="1120" y2="60.0" stroke="#e0e0e0" stroke-width="1"/>
<text x="90" y="64.0" text-anchor="end" font-size="11" fill="#666">$7,000</text>
<line x1="100.0" y1="60" x2="100.0" y2="587" stroke="#e0e0e0" stroke-width="1"/>
<text x="100.0" y="607" text-anchor="middle" font-size="11" fill="#666">$2,400</text>
<line x1="245.7" y1="60" x2="245.7" y2="587" stroke="#e0e0e0" stroke-width="1"/>
<text x="245.7" y="607" text-anchor="middle" font-size="11" fill="#666">$2,500</text>
<line x1="391.4" y1="60" x2="391.4" y2="587" stroke="#e0e0e0" stroke-width="1"/>
<text x="391.4" y="607" text-anchor="middle" font-size="11" fill="#666">$2,600</text>
<line x1="537.1" y1="60" x2="537.1" y2="587" stroke="#e0e0e0" stroke-width="1"/>
<text x="537.1" y="607" text-anchor="middle" font-size="11" fill="#666">$2,700</text>
<line x1="682.9" y1="60" x2="682.9" y2="587" stroke="#e0e0e0" stroke-width="1"/>
<text x="682.9" y="607" text-anchor="middle" font-size="11" fill="#666">$2,800</text>
<line x1="828.6" y1="60" x2="828.6" y2="587" stroke="#e0e0e0" stroke-width="1"/>
<text x="828.6" y="607" text-anchor="middle" font-size="11" fill="#666">$2,900</text>
<line x1="974.3" y1="60" x2="974.3" y2="587" stroke="#e0e0e0" stroke-width="1"/>
<text x="974.3" y="607" text-anchor="middle" font-size="11" fill="#666">$3,000</text>
<line x1="1120.0" y1="60" x2="1120.0" y2="587" stroke="#e0e0e0" stroke-width="1"/>
<text x="1120.0" y="607" text-anchor="middle" font-size="11" fill="#666">$3,100</text>
<text x="600.0" y="647" text-anchor="middle" font-size="12" font-weight="bold" fill="#333">Underlying Price (RUT)</text>
<text x="20" y="333.5" text-anchor="middle" font-size="12" font-weight="bold" fill="#333" transform="rotate(-90 20 333.5)">P/L per Contract ($)</text>
<line x1="100" y1="411.3" x2="1120" y2="411.3" stroke="#333" stroke-width="1.5"/>
<path d="M100.0,490.7 L104.2,490.1 L108.5,489.5 L112.8,488.9 L117.0,488.3 L121.3,487.7 L125.5,487.1 L129.7,486.5 L134.0,485.8 L138.2,485.2 L142.5,484.6 L146.8,483.9 L151.0,483.3 L155.2,482.7 L159.5,482.0 L163.8,481.4 L168.0,480.8 L172.3,480.1 L176.5,479.5 L180.7,478.8 L185.0,478.2 L189.2,477.5 L193.5,476.9 L197.8,476.2 L202.0,475.6 L206.2,474.9 L210.5,474.2 L214.8,473.6 L219.0,472.9 L223.3,472.2 L227.5,471.6 L231.7,470.9 L236.0,470.2 L240.2,469.6 L244.5,468.9 L248.8,468.2 L253.0,467.5 L257.2,466.8 L261.5,466.2 L265.8,465.5 L270.0,464.8 L274.3,464.1 L278.5,463.4 L282.7,462.7 L287.0,462.0 L291.2,461.4 L295.5,460.7 L299.8,460.0 L304.0,459.3 L308.2,458.6 L312.5,457.9 L316.8,457.2 L321.0,456.5 L325.3,455.8 L329.5,455.1 L333.7,454.4 L338.0,453.7 L342.2,453.0 L346.5,452.3 L350.8,451.6 L355.0,450.9 L359.2,450.2 L363.5,449.5 L367.8,448.7 L372.0,448.0 L376.3,447.3 L380.5,446.6 L384.7,445.9 L389.0,445.2 L393.2,444.5 L397.5,443.8 L401.8,443.1 L406.0,442.3 L410.2,441.6 L414.5,440.9 L418.8,440.2 L423.0,439.5 L427.3,438.8 L431.5,438.1 L435.7,437.3 L440.0,436.6 L444.2,435.9 L448.5,435.2 L452.8,434.5 L457.0,433.8 L461.2,433.0 L465.5,432.3 L469.8,431.6 L474.0,430.9 L478.3,430.2 L482.5,429.5 L486.7,428.8 L491.0,428.0 L495.2,427.3 L499.5,426.6 L503.8,425.9 L508.0,425.2 L512.2,424.5 L516.5,423.8 L520.8,423.0 L525.0,422.3 L529.3,421.6 L533.5,420.9 L537.7,420.2 L542.0,419.5 L546.2,418.8 L550.5,418.1 L554.8,417.4 L559.0,416.6 L563.2,415.9 L567.5,415.2 L571.8,414.5 L576.0,413.8 L580.3,413.1 L584.5,412.4 L588.7,411.7 L593.0,411.0 L597.2,410.3 L601.5,409.6 L605.8,408.9 L610.0,408.2 L614.2,407.5 L618.5,406.8 L622.8,406.1 L627.0,405.4 L631.3,404.7 L635.5,404.0 L639.7,403.4 L644.0,402.7 L648.2,402.0 L652.5,401.3 L656.8,400.6 L661.0,399.9 L665.2,399.2 L669.5,398.6 L673.8,397.9 L678.0,397.2 L682.3,396.5 L686.5,395.8 L690.7,395.2 L695.0,394.5 L699.2,393.8 L703.5,393.1 L707.8,392.5 L712.0,391.8 L716.2,391.1 L720.5,390.5 L724.8,389.8 L729.0,389.2 L733.3,388.5 L737.5,387.8 L741.7,387.2 L746.0,386.5 L750.2,385.9 L754.5,385.2 L758.8,384.6 L763.0,383.9 L767.2,383.3 L771.5,382.6 L775.8,382.0 L780.0,381.4 L784.3,380.7 L788.5,380.1 L792.7,379.5 L797.0,378.8 L801.2,378.2 L805.5,377.6 L809.8,376.9 L814.0,376.3 L818.2,375.7 L822.5,375.1 L826.8,374.5 L831.0,373.8 L835.3,373.2 L839.5,372.6 L843.7,372.0 L848.0,371.4 L852.2,370.8 L856.5,370.2 L860.8,369.6 L865.0,369.0 L869.2,368.4 L873.5,367.8 L877.8,367.2 L882.0,366.6 L886.3,366.0 L890.5,365.4 L894.7,364.9 L899.0,364.3 L903.2,363.7 L907.5,363.1 L911.8,362.5 L916.0,362.0 L920.2,361.4 L924.5,360.8 L928.8,360.3 L933.0,359.7 L937.3,359.1 L941.5,358.6 L945.7,358.0 L950.0,357.5 L954.2,356.9 L958.5,356.4 L962.8,355.8 L967.0,355.3 L971.2,354.7 L975.5,354.2 L979.8,353.7 L984.0,353.1 L988.3,352.6 L992.5,352.1 L996.7,351.5 L1001.0,351.0 L1005.2,350.5 L1009.5,350.0 L1013.8,349.5 L1018.0,348.9 L1022.2,348.4 L1026.5,347.9 L1030.8,347.4 L1035.0,346.9 L1039.3,346.4 L1043.5,345.9 L1047.7,345.4 L1052.0,344.9 L1056.2,344.4 L1060.5,343.9 L1064.8,343.4 L1069.0,343.0 L1073.2,342.5 L1077.5,342.0 L1081.8,341.5 L1086.0,341.0 L1090.3,340.6 L1094.5,340.1 L1098.7,339.6 L1103.0,339.2 L1107.2,338.7 L1111.5,338.3 L1115.8,337.8 L1120.0,337.3" fill="none" stroke="#3b6ea8" stroke-width="3"/>
<path d="M100.0,555.3 L104.2,555.3 L108.5,555.3 L112.8,555.3 L117.0,555.3 L121.3,555.2 L125.5,555.2 L129.7,555.2 L134.0,555.2 L138.2,555.2 L142.5,555.2 L146.8,555.2 L151.0,555.1 L155.2,555.1 L159.5,555.1 L163.8,555.1 L168.0,555.1 L172.3,555.0 L176.5,555.0 L180.7,555.0 L185.0,555.0 L189.2,554.9 L193.5,554.9 L197.8,554.9 L202.0,554.8 L206.2,554.8 L210.5,554.7 L214.8,554.7 L219.0,554.6 L223.3,554.6 L227.5,554.5 L231.7,554.5 L236.0,554.4 L240.2,554.3 L244.5,554.3 L248.8,554.2 L253.0,554.1 L257.2,554.0 L261.5,553.9 L265.8,553.8 L270.0,553.7 L274.3,553.6 L278.5,553.5 L282.7,553.4 L287.0,553.3 L291.2,553.1 L295.5,553.0 L299.8,552.8 L304.0,552.7 L308.2,552.5 L312.5,552.3 L316.8,552.1 L321.0,551.9 L325.3,551.7 L329.5,551.5 L333.7,551.3 L338.0,551.0 L342.2,550.8 L346.5,550.5 L350.8,550.2 L355.0,549.9 L359.2,549.6 L363.5,549.3 L367.8,549.0 L372.0,548.6 L376.3,548.3 L380.5,547.9 L384.7,547.5 L389.0,547.0 L393.2,546.6 L397.5,546.1 L401.8,545.6 L406.0,545.1 L410.2,544.6 L414.5,544.0 L418.8,543.4 L423.0,542.8 L427.3,542.2 L431.5,541.6 L435.7,540.9 L440.0,540.2 L444.2,539.4 L448.5,538.6 L452.8,537.8 L457.0,537.0 L461.2,536.1 L465.5,535.2 L469.8,534.3 L474.0,533.3 L478.3,532.3 L482.5,531.2 L486.7,530.1 L491.0,529.0 L495.2,527.8 L499.5,526.6 L503.8,525.4 L508.0,524.1 L512.2,522.7 L516.5,521.3 L520.8,519.9 L525.0,518.4 L529.3,516.8 L533.5,515.2 L537.7,513.6 L542.0,511.9 L546.2,510.1 L550.5,508.3 L554.8,506.4 L559.0,504.5 L563.2,502.5 L567.5,500.5 L571.8,498.3 L576.0,496.2 L580.3,493.9 L584.5,491.6 L588.7,489.2 L593.0,486.8 L597.2,484.3 L601.5,481.7 L605.8,479.0 L610.0,476.3 L614.2,473.5 L618.5,470.6 L622.8,467.7 L627.0,464.6 L631.3,461.5 L635.5,458.3 L639.7,455.0 L644.0,451.7 L648.2,448.3 L652.5,444.7 L656.8,441.1 L661.0,437.4 L665.2,433.6 L669.5,429.8 L673.8,425.8 L678.0,421.8 L682.3,417.6 L686.5,413.4 L690.7,409.1 L695.0,404.7 L699.2,400.2 L703.5,395.6 L707.8,390.9 L712.0,386.1 L716.2,381.2 L720.5,376.2 L724.8,371.1 L729.0,365.9 L733.3,360.6 L737.5,355.2 L741.7,349.7 L746.0,344.2 L750.2,338.5 L754.5,332.7 L758.8,326.8 L763.0,320.8 L767.2,314.7 L771.5,308.5 L775.8,302.2 L780.0,295.8 L784.3,289.3 L788.5,282.6 L792.7,275.9 L797.0,269.1 L801.2,262.2 L805.5,255.1 L809.8,248.0 L814.0,240.8 L818.2,233.4 L822.5,226.0 L826.8,218.4 L831.0,210.8 L835.3,203.0 L839.5,195.1 L843.7,187.2 L848.0,179.1 L852.2,170.9 L856.5,162.6 L860.8,154.3 L865.0,145.8 L869.2,137.2 L873.5,128.5 L877.8,119.8 L882.0,110.9 L886.3,101.9 L890.5,92.8 L894.7,83.7 L899.0,74.4 L903.2,71.3 L907.5,76.5 L911.8,81.6 L916.0,86.6 L920.2,91.5 L924.5,96.3 L928.8,101.0 L933.0,105.6 L937.3,110.2 L941.5,114.6 L945.7,119.0 L950.0,123.2 L954.2,127.4 L958.5,131.5 L962.8,135.5 L967.0,139.5 L971.2,143.3 L975.5,147.1 L979.8,150.8 L984.0,154.4 L988.3,157.9 L992.5,161.3 L996.7,164.7 L1001.0,168.0 L1005.2,171.2 L1009.5,174.4 L1013.8,177.5 L1018.0,180.5 L1022.2,183.4 L1026.5,186.3 L1030.8,189.1 L1035.0,191.8 L1039.3,194.5 L1043.5,197.1 L1047.7,199.6 L1052.0,202.1 L1056.2,204.5 L1060.5,206.8 L1064.8,209.1 L1069.0,211.4 L1073.2,213.5 L1077.5,215.7 L1081.8,217.7 L1086.0,219.7 L1090.3,221.7 L1094.5,223.6 L1098.7,225.4 L1103.0,227.3 L1107.2,229.0 L1111.5,230.7 L1115.8,232.4 L1120.0,234.0" fill="none" stroke="#d4a017" stroke-width="2.5" stroke-dasharray="6 3"/>
<line x1="828.6" y1="60" x2="828.6" y2="587" stroke="#888" stroke-width="1" stroke-dasharray="3 3"/>
<text x="828.6" y="52" text-anchor="middle" font-size="11" fill="#444">Long 2900C</text>
<line x1="901.4" y1="60" x2="901.4" y2="587" stroke="#888" stroke-width="1" stroke-dasharray="3 3"/>
<text x="901.4" y="52" text-anchor="middle" font-size="11" fill="#444">Short 2950C</text>
<line x1="494.1" y1="60" x2="494.1" y2="587" stroke="#c33" stroke-width="2"/>
<circle cx="494.1" cy="427.5" r="5" fill="#c33"/>
<text x="504.1" y="417.5" font-size="11" font-weight="bold" fill="#c33">Spot $2,670</text>
<line x1="870.4" y1="403.3" x2="870.4" y2="419.3" stroke="#000" stroke-width="2"/>
<text x="870.4" y="436.3" text-anchor="middle" font-size="10" fill="#000" font-weight="bold">$2928.70</text>
<text x="974.3" y="160.0" font-size="11" fill="#3a8a3a" font-weight="bold">Max profit: $4849</text>
<text x="245.7" y="559.4" font-size="11" fill="#c33" font-weight="bold">Max loss: −$2870</text>
<rect x="830" y="62" width="280" height="80" fill="white" stroke="#999" stroke-width="1" rx="4"/>
<text x="840" y="80" font-size="12" font-weight="bold" fill="#333">Time Horizons</text>
<line x1="840" y1="96" x2="870" y2="96" stroke="#3b6ea8" stroke-width="3"/>
<text x="878" y="100" font-size="11" fill="#333">Mid-life (~125 DTE, hump region)</text>
<line x1="840" y1="116" x2="870" y2="116" stroke="#d4a017" stroke-width="2.5" stroke-dasharray="6 3"/>
<text x="878" y="120" font-size="11" fill="#333">At front expiration (Dec 18 2026)</text>
</svg>
