<svg xmlns="http://www.w3.org/2000/svg" viewBox="0 0 1200 667" width="1200" height="667" font-family="Georgia, serif">
<rect width="1200" height="667" fill="#fafaf7"/>

<text x="600.0" y="32" text-anchor="middle" font-size="22" font-weight="bold" fill="#1e3a5f">
  RUT Diagonal Call Spread — P/L Curve at Three Time Horizons
</text>
<text x="600.0" y="52" text-anchor="middle" font-size="13" fill="#666">
  Dec 18 / Dec 31 2026 · 2900/2950 · Net debit $2,870 · Spot $2,787 · IV 30%
</text>
<line x1="100" y1="587.0" x2="1120" y2="587.0" stroke="#e0e0e0" stroke-width="1"/>
<text x="90" y="591.0" text-anchor="end" font-size="11" fill="#666">$-3,500</text>
<line x1="100" y1="499.2" x2="1120" y2="499.2" stroke="#e0e0e0" stroke-width="1"/>
<text x="90" y="503.2" text-anchor="end" font-size="11" fill="#666">$-1,750</text>
<line x1="100" y1="411.3" x2="1120" y2="411.3" stroke="#e0e0e0" stroke-width="1"/>
<text x="90" y="415.3" text-anchor="end" font-size="11" fill="#666">$0</text>
<line x1="100" y1="323.5" x2="1120" y2="323.5" stroke="#e0e0e0" stroke-width="1"/>
<text x="90" y="327.5" text-anchor="end" font-size="11" fill="#666">$1,750</text>
<line x1="100" y1="235.7" x2="1120" y2="235.7" stroke="#e0e0e0" stroke-width="1"/>
<text x="90" y="239.7" text-anchor="end" font-size="11" fill="#666">$3,500</text>
<line x1="100" y1="147.8" x2="1120" y2="147.8" stroke="#e0e0e0" stroke-width="1"/>
<text x="90" y="151.8" text-anchor="end" font-size="11" fill="#666">$5,250</text>
<line x1="100" y1="60.0" x2="1120" y2="60.0" stroke="#e0e0e0" stroke-width="1"/>
<text x="90" y="64.0" text-anchor="end" font-size="11" fill="#666">$7,000</text>
<line x1="100.0" y1="60" x2="100.0" y2="587" stroke="#e0e0e0" stroke-width="1"/>
<text x="100.0" y="607" text-anchor="middle" font-size="11" fill="#666">$2,400</text>
<line x1="245.7" y1="60" x2="245.7" y2="587" stroke="#e0e0e0" stroke-width="1"/>
<text x="245.7" y="607" text-anchor="middle" font-size="11" fill="#666">$2,500</text>
<line x1="391.4" y1="60" x2="391.4" y2="587" stroke="#e0e0e0" stroke-width="1"/>
<text x="391.4" y="607" text-anchor="middle" font-size="11" fill="#666">$2,600</text>
<line x1="537.1" y1="60" x2="537.1" y2="587" stroke="#e0e0e0" stroke-width="1"/>
<text x="537.1" y="607" text-anchor="middle" font-size="11" fill="#666">$2,700</text>
<line x1="682.9" y1="60" x2="682.9" y2="587" stroke="#e0e0e0" stroke-width="1"/>
<text x="682.9" y="607" text-anchor="middle" font-size="11" fill="#666">$2,800</text>
<line x1="828.6" y1="60" x2="828.6" y2="587" stroke="#e0e0e0" stroke-width="1"/>
<text x="828.6" y="607" text-anchor="middle" font-size="11" fill="#666">$2,900</text>
<line x1="974.3" y1="60" x2="974.3" y2="587" stroke="#e0e0e0" stroke-width="1"/>
<text x="974.3" y="607" text-anchor="middle" font-size="11" fill="#666">$3,000</text>
<line x1="1120.0" y1="60" x2="1120.0" y2="587" stroke="#e0e0e0" stroke-width="1"/>
<text x="1120.0" y="607" text-anchor="middle" font-size="11" fill="#666">$3,100</text>
<text x="600.0" y="647" text-anchor="middle" font-size="12" font-weight="bold" fill="#333">Underlying Price (RUT)</text>
<text x="20" y="333.5" text-anchor="middle" font-size="12" font-weight="bold" fill="#333" transform="rotate(-90 20 333.5)">P/L per Contract ($)</text>
<line x1="100" y1="411.3" x2="1120" y2="411.3" stroke="#333" stroke-width="1.5"/>
<path d="M100.0,492.2 L104.2,491.6 L108.5,491.0 L112.8,490.4 L117.0,489.8 L121.3,489.1 L125.5,488.5 L129.7,487.9 L134.0,487.3 L138.2,486.6 L142.5,486.0 L146.8,485.3 L151.0,484.7 L155.2,484.1 L159.5,483.4 L163.8,482.8 L168.0,482.1 L172.3,481.5 L176.5,480.8 L180.7,480.1 L185.0,479.5 L189.2,478.8 L193.5,478.2 L197.8,477.5 L202.0,476.8 L206.2,476.2 L210.5,475.5 L214.8,474.8 L219.0,474.1 L223.3,473.5 L227.5,472.8 L231.7,472.1 L236.0,471.4 L240.2,470.7 L244.5,470.0 L248.8,469.4 L253.0,468.7 L257.2,468.0 L261.5,467.3 L265.8,466.6 L270.0,465.9 L274.3,465.2 L278.5,464.5 L282.7,463.8 L287.0,463.1 L291.2,462.4 L295.5,461.7 L299.8,461.0 L304.0,460.3 L308.2,459.5 L312.5,458.8 L316.8,458.1 L321.0,457.4 L325.3,456.7 L329.5,456.0 L333.7,455.3 L338.0,454.5 L342.2,453.8 L346.5,453.1 L350.8,452.4 L355.0,451.7 L359.2,450.9 L363.5,450.2 L367.8,449.5 L372.0,448.8 L376.3,448.0 L380.5,447.3 L384.7,446.6 L389.0,445.9 L393.2,445.1 L397.5,444.4 L401.8,443.7 L406.0,442.9 L410.2,442.2 L414.5,441.5 L418.8,440.8 L423.0,440.0 L427.3,439.3 L431.5,438.6 L435.7,437.8 L440.0,437.1 L444.2,436.4 L448.5,435.6 L452.8,434.9 L457.0,434.2 L461.2,433.4 L465.5,432.7 L469.8,432.0 L474.0,431.2 L478.3,430.5 L482.5,429.8 L486.7,429.0 L491.0,428.3 L495.2,427.6 L499.5,426.8 L503.8,426.1 L508.0,425.4 L512.2,424.6 L516.5,423.9 L520.8,423.2 L525.0,422.4 L529.3,421.7 L533.5,421.0 L537.7,420.2 L542.0,419.5 L546.2,418.8 L550.5,418.1 L554.8,417.3 L559.0,416.6 L563.2,415.9 L567.5,415.2 L571.8,414.4 L576.0,413.7 L580.3,413.0 L584.5,412.3 L588.7,411.5 L593.0,410.8 L597.2,410.1 L601.5,409.4 L605.8,408.7 L610.0,407.9 L614.2,407.2 L618.5,406.5 L622.8,405.8 L627.0,405.1 L631.3,404.4 L635.5,403.7 L639.7,403.0 L644.0,402.3 L648.2,401.5 L652.5,400.8 L656.8,400.1 L661.0,399.4 L665.2,398.7 L669.5,398.0 L673.8,397.3 L678.0,396.6 L682.3,395.9 L686.5,395.3 L690.7,394.6 L695.0,393.9 L699.2,393.2 L703.5,392.5 L707.8,391.8 L712.0,391.1 L716.2,390.4 L720.5,389.8 L724.8,389.1 L729.0,388.4 L733.3,387.7 L737.5,387.1 L741.7,386.4 L746.0,385.7 L750.2,385.0 L754.5,384.4 L758.8,383.7 L763.0,383.0 L767.2,382.4 L771.5,381.7 L775.8,381.1 L780.0,380.4 L784.3,379.8 L788.5,379.1 L792.7,378.5 L797.0,377.8 L801.2,377.2 L805.5,376.5 L809.8,375.9 L814.0,375.2 L818.2,374.6 L822.5,374.0 L826.8,373.3 L831.0,372.7 L835.3,372.1 L839.5,371.5 L843.7,370.8 L848.0,370.2 L852.2,369.6 L856.5,369.0 L860.8,368.4 L865.0,367.7 L869.2,367.1 L873.5,366.5 L877.8,365.9 L882.0,365.3 L886.3,364.7 L890.5,364.1 L894.7,363.5 L899.0,362.9 L903.2,362.3 L907.5,361.7 L911.8,361.2 L916.0,360.6 L920.2,360.0 L924.5,359.4 L928.8,358.8 L933.0,358.3 L937.3,357.7 L941.5,357.1 L945.7,356.6 L950.0,356.0 L954.2,355.4 L958.5,354.9 L962.8,354.3 L967.0,353.8 L971.2,353.2 L975.5,352.7 L979.8,352.1 L984.0,351.6 L988.3,351.0 L992.5,350.5 L996.7,349.9 L1001.0,349.4 L1005.2,348.9 L1009.5,348.4 L1013.8,347.8 L1018.0,347.3 L1022.2,346.8 L1026.5,346.3 L1030.8,345.7 L1035.0,345.2 L1039.3,344.7 L1043.5,344.2 L1047.7,343.7 L1052.0,343.2 L1056.2,342.7 L1060.5,342.2 L1064.8,341.7 L1069.0,341.2 L1073.2,340.7 L1077.5,340.2 L1081.8,339.8 L1086.0,339.3 L1090.3,338.8 L1094.5,338.3 L1098.7,337.9 L1103.0,337.4 L1107.2,336.9 L1111.5,336.5 L1115.8,336.0 L1120.0,335.5" fill="none" stroke="#3b6ea8" stroke-width="3"/>
<path d="M100.0,555.3 L104.2,555.3 L108.5,555.3 L112.8,555.3 L117.0,555.3 L121.3,555.2 L125.5,555.2 L129.7,555.2 L134.0,555.2 L138.2,555.2 L142.5,555.2 L146.8,555.2 L151.0,555.1 L155.2,555.1 L159.5,555.1 L163.8,555.1 L168.0,555.1 L172.3,555.0 L176.5,555.0 L180.7,555.0 L185.0,555.0 L189.2,554.9 L193.5,554.9 L197.8,554.9 L202.0,554.8 L206.2,554.8 L210.5,554.7 L214.8,554.7 L219.0,554.6 L223.3,554.6 L227.5,554.5 L231.7,554.5 L236.0,554.4 L240.2,554.3 L244.5,554.3 L248.8,554.2 L253.0,554.1 L257.2,554.0 L261.5,553.9 L265.8,553.8 L270.0,553.7 L274.3,553.6 L278.5,553.5 L282.7,553.4 L287.0,553.3 L291.2,553.1 L295.5,553.0 L299.8,552.8 L304.0,552.7 L308.2,552.5 L312.5,552.3 L316.8,552.1 L321.0,551.9 L325.3,551.7 L329.5,551.5 L333.7,551.3 L338.0,551.0 L342.2,550.8 L346.5,550.5 L350.8,550.2 L355.0,549.9 L359.2,549.6 L363.5,549.3 L367.8,549.0 L372.0,548.6 L376.3,548.3 L380.5,547.9 L384.7,547.5 L389.0,547.0 L393.2,546.6 L397.5,546.1 L401.8,545.6 L406.0,545.1 L410.2,544.6 L414.5,544.0 L418.8,543.4 L423.0,542.8 L427.3,542.2 L431.5,541.6 L435.7,540.9 L440.0,540.2 L444.2,539.4 L448.5,538.6 L452.8,537.8 L457.0,537.0 L461.2,536.1 L465.5,535.2 L469.8,534.3 L474.0,533.3 L478.3,532.3 L482.5,531.2 L486.7,530.1 L491.0,529.0 L495.2,527.8 L499.5,526.6 L503.8,525.4 L508.0,524.1 L512.2,522.7 L516.5,521.3 L520.8,519.9 L525.0,518.4 L529.3,516.8 L533.5,515.2 L537.7,513.6 L542.0,511.9 L546.2,510.1 L550.5,508.3 L554.8,506.4 L559.0,504.5 L563.2,502.5 L567.5,500.5 L571.8,498.3 L576.0,496.2 L580.3,493.9 L584.5,491.6 L588.7,489.2 L593.0,486.8 L597.2,484.3 L601.5,481.7 L605.8,479.0 L610.0,476.3 L614.2,473.5 L618.5,470.6 L622.8,467.7 L627.0,464.6 L631.3,461.5 L635.5,458.3 L639.7,455.0 L644.0,451.7 L648.2,448.3 L652.5,444.7 L656.8,441.1 L661.0,437.4 L665.2,433.6 L669.5,429.8 L673.8,425.8 L678.0,421.8 L682.3,417.6 L686.5,413.4 L690.7,409.1 L695.0,404.7 L699.2,400.2 L703.5,395.6 L707.8,390.9 L712.0,386.1 L716.2,381.2 L720.5,376.2 L724.8,371.1 L729.0,365.9 L733.3,360.6 L737.5,355.2 L741.7,349.7 L746.0,344.2 L750.2,338.5 L754.5,332.7 L758.8,326.8 L763.0,320.8 L767.2,314.7 L771.5,308.5 L775.8,302.2 L780.0,295.8 L784.3,289.3 L788.5,282.6 L792.7,275.9 L797.0,269.1 L801.2,262.2 L805.5,255.1 L809.8,248.0 L814.0,240.8 L818.2,233.4 L822.5,226.0 L826.8,218.4 L831.0,210.8 L835.3,203.0 L839.5,195.1 L843.7,187.2 L848.0,179.1 L852.2,170.9 L856.5,162.6 L860.8,154.3 L865.0,145.8 L869.2,137.2 L873.5,128.5 L877.8,119.8 L882.0,110.9 L886.3,101.9 L890.5,92.8 L894.7,83.7 L899.0,74.4 L903.2,71.3 L907.5,76.5 L911.8,81.6 L916.0,86.6 L920.2,91.5 L924.5,96.3 L928.8,101.0 L933.0,105.6 L937.3,110.2 L941.5,114.6 L945.7,119.0 L950.0,123.2 L954.2,127.4 L958.5,131.5 L962.8,135.5 L967.0,139.5 L971.2,143.3 L975.5,147.1 L979.8,150.8 L984.0,154.4 L988.3,157.9 L992.5,161.3 L996.7,164.7 L1001.0,168.0 L1005.2,171.2 L1009.5,174.4 L1013.8,177.5 L1018.0,180.5 L1022.2,183.4 L1026.5,186.3 L1030.8,189.1 L1035.0,191.8 L1039.3,194.5 L1043.5,197.1 L1047.7,199.6 L1052.0,202.1 L1056.2,204.5 L1060.5,206.8 L1064.8,209.1 L1069.0,211.4 L1073.2,213.5 L1077.5,215.7 L1081.8,217.7 L1086.0,219.7 L1090.3,221.7 L1094.5,223.6 L1098.7,225.4 L1103.0,227.3 L1107.2,229.0 L1111.5,230.7 L1115.8,232.4 L1120.0,234.0" fill="none" stroke="#d4a017" stroke-width="2.5" stroke-dasharray="6 3"/>
<line x1="828.6" y1="60" x2="828.6" y2="587" stroke="#888" stroke-width="1" stroke-dasharray="3 3"/>
<text x="828.6" y="52" text-anchor="middle" font-size="11" fill="#444">Long 2900C</text>
<line x1="901.4" y1="60" x2="901.4" y2="587" stroke="#888" stroke-width="1" stroke-dasharray="3 3"/>
<text x="901.4" y="52" text-anchor="middle" font-size="11" fill="#444">Short 2950C</text>
<line x1="663.9" y1="60" x2="663.9" y2="587" stroke="#c33" stroke-width="2"/>
<circle cx="663.9" cy="399.0" r="5" fill="#c33"/>
<text x="673.9" y="389.0" font-size="11" font-weight="bold" fill="#c33">Spot $2,787</text>
<line x1="870.4" y1="403.3" x2="870.4" y2="419.3" stroke="#000" stroke-width="2"/>
<text x="870.4" y="436.3" text-anchor="middle" font-size="10" fill="#000" font-weight="bold">$2928.70</text>
<text x="974.3" y="160.0" font-size="11" fill="#3a8a3a" font-weight="bold">Max profit: $4849</text>
<text x="245.7" y="559.4" font-size="11" fill="#c33" font-weight="bold">Max loss: −$2870</text>
<rect x="830" y="62" width="280" height="80" fill="white" stroke="#999" stroke-width="1" rx="4"/>
<text x="840" y="80" font-size="12" font-weight="bold" fill="#333">Time Horizons</text>
<line x1="840" y1="96" x2="870" y2="96" stroke="#3b6ea8" stroke-width="3"/>
<text x="878" y="100" font-size="11" fill="#333">Mid-life (~125 DTE, hump region)</text>
<line x1="840" y1="116" x2="870" y2="116" stroke="#d4a017" stroke-width="2.5" stroke-dasharray="6 3"/>
<text x="878" y="120" font-size="11" fill="#333">At front expiration (Dec 18 2026)</text>
</svg>
